<svg width="56" height="56" viewBox="0 0 56 56" fill="none" xmlns="http://www.w3.org/2000/svg">
<g clip-path="url(#clip0)">
<path d="M28.001 56C43.4227 56 56.0008 43.4219 56.0008 27.9999C56.0008 12.5782 43.4227 0 28.001 0C12.5792 0 0.000976562 12.5782 0.000976562 27.9999C0.000976562 43.4219 12.5792 56 28.001 56Z" fill="#FF757C"/>
<path d="M23.9084 39.1146L22.7109 43.3638L18.6855 46.4146V47.0683H28.0004H37.3148V46.4146L33.2897 43.3638L32.0922 39.1146L28.0004 39.0603L23.9084 39.1146Z" fill="#C8CACC"/>
<path d="M18.6855 46.7415V47.0684H28.0004H37.3147V46.7415H18.6855Z" fill="white"/>
<path d="M7.21708 5.77368H48.7834C50.1491 5.77368 51.2664 6.89106 51.2664 8.25649V33.8617H4.73438V8.25649C4.73438 6.89106 5.85164 5.77368 7.21708 5.77368Z" fill="#666666"/>
<path d="M6.41992 32.1758H49.58V8.25649C49.58 7.82139 49.218 7.45947 48.783 7.45947H7.21683C6.78184 7.45947 6.41992 7.82139 6.41992 8.25649V32.1758Z" fill="#15BDB1"/>
<path d="M20.0851 33.8618H39.6073L24.8475 20.1287L17.8774 27.0479L20.0851 33.8618Z" fill="#20D0C2"/>
<path d="M20.0853 33.8618H39.6075L37.7955 32.1758H19.5391L20.0853 33.8618Z" fill="#807D7D"/>
<path d="M22.7536 24.9901C23.6784 24.0719 23.6677 22.5616 22.7292 21.6166C22.0944 20.9771 21.1978 20.7603 20.3976 20.9713L19.6187 20.1867C19.5256 20.0931 19.375 20.0908 19.2835 20.1818L18.0558 21.4006C17.9642 21.4916 17.9653 21.6422 18.0581 21.7358L18.7916 22.4744C18.5133 23.304 18.7106 24.2666 19.3803 24.9411C20.3185 25.8864 21.8288 25.9081 22.7536 24.9901Z" fill="white"/>
<path d="M19.71 18.4258L17.9347 16.6375C17.3272 16.0252 16.3292 16.0219 15.717 16.6294L14.4449 17.892C13.8327 18.5 13.8291 19.4981 14.4368 20.11L16.2125 21.8987C15.8022 23.4786 16.1964 25.3545 17.8779 27.0484L24.848 20.1287C23.1664 18.4345 21.2934 18.0269 19.71 18.4258Z" fill="#FBB429"/>
<path d="M14.4782 17.8591L14.4449 17.8921C13.8327 18.5001 13.8291 19.4981 14.4368 20.1101L16.2125 21.8987C15.8022 23.4786 16.1964 25.3545 17.8779 27.0484L18.0897 26.8381C16.5476 25.1346 16.1968 23.2828 16.6053 21.7101L14.741 19.8325C14.2108 19.2985 14.124 18.485 14.4782 17.8591Z" fill="#F5A209"/>
<path d="M51.2663 33.8618V36.5773C51.2663 37.9433 50.0347 39.0604 48.5291 39.0604H7.47137C5.96605 39.0604 4.73438 37.9433 4.73438 36.5773V33.8618H51.2663Z" fill="white"/>
<path d="M15.9192 18.7703L8.70996 31.262V45.6886H11.1335L10.1134 31.262L16.8459 19.255C17.0949 18.7081 16.2441 18.2908 15.9192 18.7703Z" fill="#0E7886"/>
<path d="M0.000976562 49.3854H55.9986V47.0684H0.000976562V49.3854Z" fill="#807D7D"/>
<path d="M18.4199 45.6887H5.79904C4.86771 45.6887 3.74148 47.0976 4.67346 47.0976H19.1705C20.1023 47.0976 19.3517 45.6887 18.4199 45.6887Z" fill="#FBB429"/>
<path d="M9.41103 30.2854C8.85584 30.2854 8.40576 30.7354 8.40576 31.2906C8.40576 31.8459 8.85584 32.2958 9.41103 32.2958C9.96621 32.2958 10.4162 31.8459 10.4162 31.2906C10.4162 30.7354 9.96621 30.2854 9.41103 30.2854Z" fill="#FBB429"/>
<path d="M9.41116 30.7947C9.13718 30.7947 8.91504 31.0168 8.91504 31.2909C8.91504 31.5649 9.13718 31.7869 9.41116 31.7869C9.68526 31.7869 9.90718 31.5649 9.90718 31.2909C9.90718 31.0168 9.68526 30.7947 9.41116 30.7947Z" fill="white"/>
<path d="M16.8658 45.2574L14.272 44.8262V45.6886H16.8658V45.2574Z" fill="#FF5B61"/>
<path d="M24.4153 40.2698H29.0804C29.3416 40.2698 29.5552 40.4835 29.5552 40.7447V46.5933C29.5552 46.8545 29.3416 47.0684 29.0804 47.0684H24.4153C24.1541 47.0684 23.9404 46.8546 23.9404 46.5933V40.7447C23.9403 40.4835 24.154 40.2698 24.4153 40.2698Z" fill="white"/>
<path d="M29.5547 41.6062H30.8678C31.3018 41.6062 31.6567 41.9137 31.6567 42.2898V45.5203C31.6567 45.8962 31.3018 46.204 30.8678 46.204H29.5547V45.6603H30.8678C30.9418 45.6603 31.1039 45.6118 31.1039 45.5203V42.2898C31.1039 42.1981 30.9417 42.1498 30.8678 42.1498H29.5547V41.6062Z" fill="#ECF0F1"/>
<path d="M28.915 47.0684V40.2698H29.0796C29.3408 40.2698 29.5546 40.4801 29.5546 40.7369V46.601C29.5546 46.8583 29.3408 47.0684 29.0796 47.0684H28.915Z" fill="#ECF0F1"/>
<path d="M25.7964 43.4541H27.2101V44.7101H25.7964V43.4541Z" fill="#20D0C2"/>
<path d="M25.7964 43.4541H27.2101L27.1314 43.1936H25.9118L25.7964 43.4541Z" fill="#15BDB1"/>
<path d="M26.5614 40.2698V43.3182C26.5609 43.3595 26.4631 43.3615 26.4624 43.3182V40.2698H26.5614Z" fill="#FBB429"/>
<path d="M4.48535 50.226H51.5149V49.3857H4.48535V50.226Z" fill="#666666"/>
<path d="M27.9997 37.1373C28.4317 37.1373 28.784 36.7847 28.784 36.3529C28.784 35.9209 28.4316 35.5686 27.9997 35.5686C27.5676 35.5686 27.2153 35.921 27.2153 36.3529C27.2152 36.7847 27.5676 37.1373 27.9997 37.1373Z" fill="#D0D1D4"/>
<path d="M38.9784 22.0312C38.6416 21.7632 38.2171 21.5554 37.8423 21.3715C37.6185 21.2618 37.4072 21.1584 37.2534 21.0604C36.8954 20.8322 36.6344 20.2482 36.6715 19.7586C36.6874 19.5493 36.7667 19.2732 37.0539 19.1463C37.3595 19.0113 37.5894 19.2545 37.6652 19.3343C37.8243 19.5024 37.9636 19.7468 38.0471 20.005C38.1104 20.1999 38.1206 20.3384 38.1144 20.4115C38.0028 20.3955 37.8927 20.4601 37.8547 20.5704C37.8121 20.6949 37.8787 20.8306 38.0032 20.8732C38.1996 20.9404 38.3803 20.8912 38.4895 20.7423C38.652 21.2436 38.8538 21.7075 39.0887 22.1248C39.0535 22.0933 39.0172 22.0622 38.9784 22.0312ZM42.2288 30.6577H44.224V30.4485C43.6376 30.4107 42.8717 29.0991 42.8256 28.3901L42.5619 24.3296C43.4414 24.2205 44.2448 23.6849 44.888 22.8538C44.8626 22.9528 44.8504 23.0547 44.8507 23.1595C44.8528 23.4852 45.0312 23.7624 45.328 23.9016C45.4518 23.9593 45.5841 23.9877 45.7147 23.9877C45.9138 23.9877 46.1091 23.9219 46.2636 23.7943C46.6086 23.5101 46.6461 23.1547 46.5049 22.9508C46.3852 22.7782 46.1678 22.7346 45.976 22.845C45.862 22.9107 45.8226 23.0565 45.8882 23.1704C45.9297 23.2427 46.0037 23.285 46.0811 23.2895C46.0604 23.3269 46.0235 23.3744 45.9602 23.4264C45.847 23.5199 45.6744 23.5373 45.5304 23.4697C45.4549 23.4346 45.3286 23.3471 45.3277 23.1571C45.3262 22.8881 45.4686 22.649 45.7759 22.4046C46.072 22.1688 46.4721 21.9728 46.8248 21.8C47.0611 21.6843 47.284 21.575 47.4603 21.4624C47.7081 21.3046 47.9263 21.0367 48.0744 20.7082C48.2188 20.3881 48.2852 20.0381 48.2614 19.7226C48.2248 19.2431 47.9887 18.8837 47.5962 18.71C47.1724 18.5232 46.7247 18.6633 46.3678 19.095C46.3551 19.1106 46.3425 19.1265 46.3299 19.1427C46.3902 18.7015 46.4229 18.2444 46.4243 17.7754H42.2284H38.0328C38.0342 18.2443 38.0669 18.7015 38.1271 19.1427C38.1147 19.1265 38.102 19.1105 38.089 19.095C37.7322 18.6634 37.2844 18.5232 36.8609 18.71C36.4682 18.8837 36.232 19.2431 36.1957 19.7226C36.1717 20.0382 36.2381 20.3882 36.3825 20.7082C36.5309 21.0367 36.7489 21.3046 36.9967 21.4624C37.1731 21.575 37.396 21.6843 37.6322 21.8C37.9851 21.9729 38.3852 22.1688 38.6814 22.4046C38.9887 22.649 39.1313 22.8881 39.1296 23.1571C39.1284 23.3471 39.0021 23.4347 38.927 23.4697C38.7828 23.5373 38.6101 23.5198 38.4969 23.4264C38.4336 23.3744 38.397 23.3269 38.376 23.2895C38.4537 23.285 38.5274 23.2427 38.5692 23.1704C38.6347 23.0565 38.5954 22.9107 38.4812 22.845C38.2894 22.7346 38.0719 22.7781 37.9525 22.9508C37.8112 23.1548 37.8487 23.5103 38.1935 23.7943C38.3484 23.9219 38.5435 23.9877 38.7424 23.9877C38.8734 23.9877 39.0056 23.9593 39.1291 23.9016C39.4261 23.7624 39.6045 23.4852 39.6064 23.1595C39.607 23.0547 39.5946 22.9528 39.5692 22.8538C40.2125 23.6849 41.0159 24.2205 41.8953 24.3296L41.6318 28.3901C41.5858 29.0991 40.8196 30.4106 40.2332 30.4485V30.6577H42.2288ZM45.4793 22.0312C45.4405 22.0622 45.4044 22.0933 45.3694 22.1248C45.604 21.7075 45.8059 21.2436 45.9683 20.7423C46.0778 20.891 46.2581 20.9404 46.4546 20.8732C46.5793 20.8306 46.6457 20.6949 46.603 20.5704C46.5654 20.4601 46.4549 20.3954 46.3436 20.4115C46.3371 20.3385 46.3477 20.2 46.4108 20.005C46.4943 19.7468 46.6336 19.5024 46.7928 19.3343C46.8684 19.2545 47.0984 19.0113 47.4041 19.1463C47.6912 19.2732 47.7706 19.5493 47.7863 19.7586C47.8236 20.2482 47.5627 20.8321 47.2046 21.0604C47.0505 21.1585 46.8391 21.2618 46.6154 21.3715C46.2409 21.5554 45.8161 21.7633 45.4793 22.0312Z" fill="#FBB429"/>
<path d="M45.5465 17.7755C45.5465 17.7755 46.3607 23.2861 42.4126 24.2596L42.6549 28.3829C42.6449 29.4798 43.5462 30.6579 44.2245 30.6579V30.4487C43.6381 30.4109 42.8722 29.0993 42.8261 28.3903L42.5624 24.3298C43.4368 24.2215 44.2359 23.6914 44.8776 22.8684C44.8814 22.8626 44.8849 22.8577 44.8885 22.854C44.8885 22.854 45.1957 22.4936 45.4239 22.0773C45.4053 22.0931 45.3873 22.109 45.3696 22.1249C45.4365 22.0061 45.5007 21.8834 45.562 21.7572C45.7676 21.2681 45.9687 20.7424 45.9687 20.7424C46.0901 20.3551 46.2516 19.7064 46.3307 19.1427C46.391 18.7015 46.4237 18.2444 46.4251 17.7754H45.5465V17.7755Z" fill="#F5A209"/>
<path d="M45.1032 34.3043H39.3545V31.0801C39.3545 30.8474 39.5441 30.6577 39.7765 30.6577H44.6809C44.9137 30.6577 45.1033 30.8474 45.1033 31.0801L45.1032 34.3043Z" fill="#666666"/>
<path d="M45.6357 34.9555H38.8213V34.4104C38.8213 34.1989 38.9932 34.0269 39.2049 34.0269H45.2522C45.4641 34.0269 45.6357 34.1988 45.6357 34.4104V34.9555Z" fill="#666666"/>
<path d="M46.5277 17.7754H37.9304C37.8273 17.7754 37.7437 17.6918 37.7437 17.5886V17.5848C37.7437 17.4818 37.8273 17.3982 37.9304 17.3982H46.5277C46.6307 17.3982 46.7143 17.4818 46.7143 17.5848V17.5886C46.7143 17.6918 46.6307 17.7754 46.5277 17.7754Z" fill="#FBB429"/>
<path d="M34.192 38.5955H49.3623V39.1073C48.644 40.0228 48.7627 41.0411 49.3623 41.804V42.3156H34.192C31.8221 42.3156 31.822 38.5955 34.192 38.5955Z" fill="#20D0C2"/>
<path d="M49.3624 41.8038C48.7501 40.9051 48.7037 40.0061 49.3624 39.1072H34.1919C33.4786 39.1072 32.8936 39.7149 32.8936 40.4554C32.8936 41.1961 33.4787 41.8037 34.1919 41.8037H49.3624V41.8038Z" fill="white"/>
<path d="M49.2167 39.3242C49.2607 39.2519 49.3091 39.1794 49.3622 39.1072H34.1916C32.7409 39.1072 32.3341 41.1865 33.7972 41.7391C32.7982 41.2529 33.1712 39.5949 34.2199 39.3242H49.2167Z" fill="#ECF0F1"/>
<path d="M49.0668 39.5807H33.2064C33.2358 39.5453 33.2665 39.5113 33.2993 39.479H49.1182C49.1002 39.5128 49.083 39.5468 49.0668 39.5807ZM33.0738 39.7728C33.055 39.8058 33.0372 39.8398 33.0212 39.8745H48.9534C48.9637 39.8406 48.9748 39.8066 48.9872 39.7728H33.0738ZM32.949 40.0665C32.9391 40.0998 32.9305 40.1339 32.9232 40.1683H48.8873C48.8924 40.1343 48.8983 40.1005 48.9048 40.0665H32.949ZM32.8967 40.3601C32.8945 40.3916 32.8936 40.4234 32.8936 40.4553V40.4622H48.8673C48.8671 40.4282 48.8679 40.3944 48.8694 40.3602H32.8967V40.3601ZM32.9077 40.6541C32.9126 40.6885 32.9187 40.7225 32.9263 40.7557H48.8913C48.886 40.7219 48.8813 40.6882 48.878 40.6541H32.9077ZM32.9838 40.9478C32.997 40.9824 33.0117 41.0164 33.0276 41.0495H48.9595C48.949 41.0158 48.9395 40.9818 48.9307 40.9478H32.9838ZM33.1393 41.2415C33.1639 41.2768 33.19 41.3107 33.2174 41.3433H49.0749C49.059 41.3097 49.0437 41.2756 49.0294 41.2415H33.1393ZM33.4177 41.5354C33.4659 41.5728 33.5167 41.6069 33.5697 41.6372H49.242C49.2197 41.6037 49.1983 41.5696 49.1777 41.5354H33.4177Z" fill="#ECF0F1"/>
<path d="M50.6627 42.3154H33.0654V42.9691C33.8986 44.1388 33.7609 45.44 33.0654 46.4147V47.0684H50.6627C53.4118 47.0685 53.4118 42.3154 50.6627 42.3154Z" fill="#FF5B61"/>
<path d="M33.0654 46.4149C33.7758 45.2662 33.8295 44.1177 33.0654 42.9692H50.6627C51.4904 42.9692 52.1693 43.7459 52.1693 44.6922C52.1693 45.6384 51.4903 46.4149 50.6627 46.4149H33.0654Z" fill="white"/>
<path d="M33.2341 43.2465C33.1831 43.1539 33.1271 43.0613 33.0654 42.969H50.6627C52.3458 42.969 52.8177 45.6259 51.1202 46.3321C52.2793 45.7105 51.8465 43.5922 50.6302 43.2465H33.2341Z" fill="#ECF0F1"/>
<path d="M33.4083 43.5743H51.8063C51.7721 43.5289 51.736 43.4855 51.6983 43.4443H33.3486C33.3696 43.4874 33.3896 43.531 33.4083 43.5743ZM51.9597 43.8196C51.9816 43.8619 52.0021 43.9054 52.0209 43.9498H33.5398C33.5277 43.9062 33.5147 43.863 33.5006 43.8196H51.9597ZM52.1046 44.1949C52.1159 44.2376 52.1258 44.2812 52.1344 44.3249H33.6161C33.6104 44.2817 33.6036 44.2383 33.5958 44.1949H52.1046ZM52.1653 44.5704C52.1678 44.6104 52.1692 44.651 52.1692 44.692L52.169 44.7005H33.64C33.6401 44.6572 33.6393 44.6138 33.6375 44.5705H52.1653V44.5704ZM52.1524 44.9456C52.1469 44.9895 52.1396 45.0329 52.131 45.0757H33.6121C33.6183 45.0326 33.6234 44.989 33.6276 44.9456H52.1524ZM52.0643 45.3211C52.0488 45.3654 52.0317 45.4086 52.0135 45.451H33.5325C33.5448 45.4079 33.5558 45.3647 33.566 45.3211H52.0643ZM51.8839 45.6964C51.8553 45.7415 51.825 45.785 51.7929 45.8265H33.3987C33.4174 45.7834 33.435 45.74 33.4514 45.6964H51.8839ZM51.561 46.0716C51.505 46.1195 51.4461 46.1631 51.3845 46.2017H33.2051C33.231 46.1589 33.2557 46.1157 33.2796 46.0716H51.561Z" fill="#ECF0F1"/>
<path d="M47.9893 34.8689H36.2759V35.3804C36.8305 36.2959 36.7389 37.3142 36.2759 38.0772V38.5887H47.9893C49.8195 38.5889 49.8196 34.8689 47.9893 34.8689Z" fill="#FBB429"/>
<path d="M36.2759 38.0774C36.7488 37.1785 36.7845 36.2795 36.2759 35.3806H47.9895C48.5401 35.3806 48.9923 35.9885 48.9923 36.7292C48.9923 37.4698 48.5401 38.0774 47.9895 38.0774H36.2759Z" fill="white"/>
<path d="M36.3881 35.5978C36.3543 35.5253 36.317 35.4529 36.2759 35.3806H47.9895C49.1096 35.3806 49.4239 37.4599 48.2939 38.0126C49.0655 37.5263 48.7773 35.8684 47.9677 35.5978H36.3881Z" fill="#ECF0F1"/>
<path d="M36.5043 35.8546H48.7508C48.7282 35.8189 48.7041 35.7852 48.6791 35.7527H36.4646C36.4786 35.7867 36.4917 35.8205 36.5043 35.8546ZM48.853 36.0465C48.8676 36.0797 48.8811 36.1135 48.8936 36.1484H36.5918C36.5838 36.1143 36.5753 36.0805 36.5658 36.0465H48.853ZM48.9494 36.3404C48.9569 36.3739 48.9637 36.4076 48.9691 36.4422H36.6426C36.6389 36.4082 36.6344 36.3744 36.629 36.3404H48.9494ZM48.9898 36.6341C48.9913 36.6654 48.9925 36.6974 48.9925 36.7293L48.9924 36.7359H36.6584C36.6585 36.7021 36.6579 36.668 36.6568 36.6341H48.9898ZM48.9815 36.9279C48.9777 36.9623 48.9727 36.9961 48.9671 37.0296H36.64C36.644 36.9958 36.6476 36.9618 36.6501 36.9279H48.9815ZM48.9225 37.2215C48.9124 37.2563 48.9009 37.2901 48.8888 37.3234H36.5869C36.595 37.2896 36.6025 37.2556 36.6093 37.2215H48.9225ZM48.8024 37.5154C48.7836 37.5506 48.7634 37.5847 48.7421 37.6173H36.4981C36.5105 37.5836 36.522 37.5496 36.5332 37.5154H48.8024ZM48.5877 37.8093C48.5504 37.8467 48.5113 37.8807 48.4703 37.9109H36.3691C36.3863 37.8773 36.4028 37.8436 36.4185 37.8093H48.5877Z" fill="#ECF0F1"/>
<path d="M16.3298 18.8105C16.1625 18.8105 16.0269 18.9462 16.0269 19.1136C16.0269 19.2809 16.1625 19.4165 16.3298 19.4165C16.4973 19.4165 16.6329 19.2809 16.6329 19.1136C16.6329 18.9462 16.4973 18.8105 16.3298 18.8105Z" fill="white"/>
</g>
<defs>
<clipPath id="clip0">
<rect width="56" height="56" fill="white"/>
</clipPath>
</defs>
</svg>
