<svg width="57" height="52" viewBox="0 0 57 52" fill="none" xmlns="http://www.w3.org/2000/svg">
<path d="M54.3037 50.75H2.64746V27.125H13.3351L28.4756 12.25L43.6165 27.125H54.3037V50.75Z" fill="#E6BE94"/>
<path d="M33.8193 40.25H23.1318V50.75H33.8193V40.25Z" fill="#996459"/>
<path d="M33.5967 36.75H23.3545C23.2315 36.75 23.1318 36.8479 23.1318 36.9688V40.25H33.8193V36.9688C33.8193 36.8479 33.7197 36.75 33.5967 36.75Z" fill="#4BB9EC"/>
<path d="M36.6956 5.25L38.1473 3.11041C38.3291 2.84211 38.3464 2.49692 38.1916 2.21233C38.0367 1.92773 37.735 1.75 37.4063 1.75H28.5C28.0077 1.75 27.6094 2.14134 27.6094 2.625V7.875C27.6094 8.35866 28.0077 8.75 28.5 8.75H37.4063C37.735 8.75 38.0368 8.57227 38.1917 8.28767C38.3465 8.00308 38.3291 7.65789 38.1474 7.38959L36.6956 5.25Z" fill="#FF4F19"/>
<path d="M28.5 13.125C28.0077 13.125 27.6094 12.7337 27.6094 12.25V0.875C27.6094 0.391344 28.0077 0 28.5 0C28.9923 0 29.3906 0.391344 29.3906 0.875V12.25C29.3906 12.7337 28.9923 13.125 28.5 13.125Z" fill="#5C546A"/>
<path d="M32.1059 16.2901C32.2433 15.9628 32.5686 15.75 32.9288 15.75H49.8506C50.155 15.75 50.4385 15.9029 50.6021 16.155L56.8365 25.78C57.0112 26.0501 57.0217 26.391 56.8661 26.6712C56.7095 26.9507 56.4103 27.1249 56.085 27.1249H42.7256C42.4891 27.1249 42.2629 27.0326 42.096 26.8685L32.2991 17.2435C32.0441 16.9933 31.9675 16.6173 32.1059 16.2901Z" fill="#FF4F19"/>
<path d="M24.8697 16.2901C24.7322 15.9627 24.4069 15.75 24.0469 15.75H7.12501C6.82064 15.75 6.53709 15.9029 6.37355 16.155L0.139171 25.78C-0.0356146 26.0501 -0.0460795 26.391 0.109557 26.6712C0.266196 26.9507 0.565335 27.125 0.890635 27.125H14.25C14.4866 27.125 14.7127 27.0327 14.8797 26.8686L24.6766 17.2436C24.9314 16.9933 25.008 16.6173 24.8697 16.2901Z" fill="#FF4F19"/>
<path d="M43.6283 27.9882C43.4004 27.9882 43.1725 27.9027 42.9986 27.7318L28.4998 13.4874L14.0011 27.7318C13.6532 28.0736 13.0895 28.0736 12.7416 27.7318C12.3937 27.39 12.3937 26.8362 12.7416 26.4944L27.8701 11.6313C28.218 11.2896 28.7817 11.2896 29.1296 11.6313L44.2581 26.4944C44.606 26.8362 44.606 27.39 44.2581 27.7318C44.084 27.9026 43.8562 27.9882 43.6283 27.9882Z" fill="#E3001E"/>
<path d="M28.5 32.375C31.4513 32.375 33.8438 30.0245 33.8438 27.125C33.8438 24.2255 31.4513 21.875 28.5 21.875C25.5487 21.875 23.1562 24.2255 23.1562 27.125C23.1562 30.0245 25.5487 32.375 28.5 32.375Z" fill="#FFEBB7"/>
<path d="M28.5 23.625C28.0077 23.625 27.6094 24.0163 27.6094 24.5V26.25H25.8281C25.3358 26.25 24.9375 26.6413 24.9375 27.125C24.9375 27.6087 25.3358 28 25.8281 28H28.5C28.9923 28 29.3906 27.6087 29.3906 27.125V24.5C29.3906 24.0163 28.9923 23.625 28.5 23.625Z" fill="#5C546A"/>
<path d="M41.835 32.8125C41.835 31.6043 40.8381 30.625 39.6084 30.625C38.3787 30.625 37.3818 31.6043 37.3818 32.8125C37.3818 32.9623 37.3975 33.1086 37.4267 33.25H37.3818V36.75H41.835V33.25H41.7901C41.8194 33.1086 41.835 32.9623 41.835 32.8125Z" fill="#4BB9EC"/>
<path d="M39.6328 29.75C37.9141 29.75 36.5156 31.124 36.5156 32.8125V36.75C36.5156 37.2337 36.914 37.625 37.4062 37.625H41.8594C42.3517 37.625 42.75 37.2337 42.75 36.75V32.8125C42.75 31.124 41.3515 29.75 39.6328 29.75ZM39.6328 31.5C40.3695 31.5 40.9688 32.0888 40.9688 32.8125V33.25H38.2969V32.8125C38.2969 32.0888 38.8962 31.5 39.6328 31.5ZM38.2969 35.875V35H40.9688V35.875H38.2969Z" fill="#7E5C62"/>
<path d="M19.5938 41.125H15.1406V46.375H19.5938V41.125Z" fill="#4BB9EC"/>
<path d="M19.5938 40.25H15.1406C14.6483 40.25 14.25 40.6413 14.25 41.125V46.375C14.25 46.8587 14.6483 47.25 15.1406 47.25H19.5938C20.086 47.25 20.4844 46.8587 20.4844 46.375V41.125C20.4844 40.6413 20.086 40.25 19.5938 40.25ZM18.7031 42V42.875H16.0312V42H18.7031ZM16.0312 45.5V44.625H18.7031V45.5H16.0312Z" fill="#7E5C62"/>
<path d="M11.5535 41.125H7.10034V46.375H11.5535V41.125Z" fill="#4BB9EC"/>
<path d="M11.5535 40.25H7.10034C6.60805 40.25 6.20972 40.6413 6.20972 41.125V46.375C6.20972 46.8587 6.60805 47.25 7.10034 47.25H11.5535C12.0458 47.25 12.4441 46.8587 12.4441 46.375V41.125C12.4441 40.6413 12.0458 40.25 11.5535 40.25ZM10.6628 42V42.875H7.99097V42H10.6628ZM7.99097 45.5V44.625H10.6628V45.5H7.99097Z" fill="#7E5C62"/>
<path d="M49.875 41.125H45.4219V46.375H49.875V41.125Z" fill="#4BB9EC"/>
<path d="M49.875 40.25H45.4219C44.9296 40.25 44.5312 40.6413 44.5312 41.125V46.375C44.5312 46.8587 44.9296 47.25 45.4219 47.25H49.875C50.3673 47.25 50.7656 46.8587 50.7656 46.375V41.125C50.7656 40.6413 50.3673 40.25 49.875 40.25ZM48.9844 42V42.875H46.3125V42H48.9844ZM46.3125 45.5V44.625H48.9844V45.5H46.3125Z" fill="#7E5C62"/>
<path d="M41.835 41.125H37.3818V46.375H41.835V41.125Z" fill="#4BB9EC"/>
<path d="M41.835 40.25H37.3818C36.8895 40.25 36.4912 40.6413 36.4912 41.125V46.375C36.4912 46.8587 36.8895 47.25 37.3818 47.25H41.835C42.3273 47.25 42.7256 46.8587 42.7256 46.375V41.125C42.7256 40.6413 42.3273 40.25 41.835 40.25ZM40.9443 42V42.875H38.2725V42H40.9443ZM38.2725 45.5V44.625H40.9443V45.5H38.2725Z" fill="#7E5C62"/>
<path d="M49.8262 32.8125C49.8262 31.6043 48.8293 30.625 47.5996 30.625C46.3699 30.625 45.373 31.6043 45.373 32.8125C45.373 32.9623 45.3887 33.1086 45.4179 33.25H45.373V36.75H49.8262V33.25H49.7813C49.8105 33.1086 49.8262 32.9623 49.8262 32.8125Z" fill="#4BB9EC"/>
<path d="M47.624 29.75C45.9053 29.75 44.5068 31.124 44.5068 32.8125V36.75C44.5068 37.2337 44.9052 37.625 45.3975 37.625H49.8506C50.3429 37.625 50.7412 37.2337 50.7412 36.75V32.8125C50.7412 31.124 49.3427 29.75 47.624 29.75ZM47.624 31.5C48.3607 31.5 48.96 32.0888 48.96 32.8125V33.25H46.2881V32.8125C46.2881 32.0888 46.8874 31.5 47.624 31.5ZM46.2881 35.875V35H48.96V35.875H46.2881Z" fill="#7E5C62"/>
<path d="M11.5293 32.8125C11.5293 31.6043 10.5325 30.625 9.30274 30.625C8.07301 30.625 7.07617 31.6043 7.07617 32.8125C7.07617 32.9623 7.09187 33.1086 7.12104 33.25H7.07617V36.75H11.5293V33.25H11.4844C11.5136 33.1086 11.5293 32.9623 11.5293 32.8125Z" fill="#4BB9EC"/>
<path d="M9.3269 29.75C7.60822 29.75 6.20972 31.124 6.20972 32.8125V36.75C6.20972 37.2337 6.60805 37.625 7.10034 37.625H11.5535C12.0458 37.625 12.4441 37.2337 12.4441 36.75V32.8125C12.4441 31.124 11.0456 29.75 9.3269 29.75ZM9.3269 31.5C10.0636 31.5 10.6628 32.0888 10.6628 32.8125V33.25H7.99097V32.8125C7.99097 32.0888 8.59025 31.5 9.3269 31.5ZM7.99097 35.875V35H10.6628V35.875H7.99097Z" fill="#7E5C62"/>
<path d="M19.5205 32.8125C19.5205 31.6043 18.5237 30.625 17.2939 30.625C16.0642 30.625 15.0674 31.6043 15.0674 32.8125C15.0674 32.9623 15.0831 33.1086 15.1122 33.25H15.0674V36.75H19.5205V33.25H19.4756C19.5048 33.1086 19.5205 32.9623 19.5205 32.8125Z" fill="#4BB9EC"/>
<path d="M17.3184 29.75C15.5997 29.75 14.2012 31.124 14.2012 32.8125V36.75C14.2012 37.2337 14.5995 37.625 15.0918 37.625H19.5449C20.0372 37.625 20.4355 37.2337 20.4355 36.75V32.8125C20.4355 31.124 19.0369 29.75 17.3184 29.75ZM17.3184 31.5C18.055 31.5 18.6543 32.0888 18.6543 32.8125V33.25H15.9824V32.8125C15.9824 32.0888 16.5816 31.5 17.3184 31.5ZM15.9824 35.875V35H18.6543V35.875H15.9824Z" fill="#7E5C62"/>
<path d="M28.5 33.25C25.0623 33.25 22.2656 30.5024 22.2656 27.125C22.2656 23.7476 25.0623 21 28.5 21C31.9377 21 34.7344 23.7476 34.7344 27.125C34.7344 30.5024 31.9377 33.25 28.5 33.25ZM28.5 22.75C26.0447 22.75 24.0469 24.7125 24.0469 27.125C24.0469 29.5375 26.0447 31.5 28.5 31.5C30.9553 31.5 32.9531 29.5375 32.9531 27.125C32.9531 24.7125 30.9553 22.75 28.5 22.75Z" fill="#7E5C62"/>
<path d="M32.0625 35.875H24.9375C23.4642 35.875 22.2656 37.0525 22.2656 38.5V50.75C22.2656 51.2337 22.664 51.625 23.1563 51.625C23.6485 51.625 24.0469 51.2337 24.0469 50.75V41.125H27.585V50.75H29.3662V41.125H32.9531V50.75C32.9531 51.2337 33.3515 51.625 33.8438 51.625C34.336 51.625 34.7344 51.2337 34.7344 50.75V38.5C34.7344 37.0525 33.5358 35.875 32.0625 35.875ZM32.9531 39.375H24.0469V38.5C24.0469 38.0172 24.4461 37.625 24.9375 37.625H32.0625C32.5539 37.625 32.9531 38.0172 32.9531 38.5V39.375Z" fill="#7E5C62"/>
<path d="M56.1094 51.625H0.890625C0.398332 51.625 0 51.2337 0 50.75C0 50.2663 0.398332 49.875 0.890625 49.875H56.1094C56.6017 49.875 57 50.2663 57 50.75C57 51.2337 56.6017 51.625 56.1094 51.625Z" fill="#5C546A"/>
</svg>
